<svg xmlns="http://www.w3.org/2000/svg" viewBox="0 0 128 128">
  <defs>
    <linearGradient id="bg" x1="14" y1="10" x2="114" y2="118" gradientUnits="userSpaceOnUse">
      <stop offset="0" stop-color="#22d3ee" />
      <stop offset="0.45" stop-color="#3b82f6" />
      <stop offset="1" stop-color="#a78bfa" />
    </linearGradient>
    <radialGradient id="shine" cx="40" cy="28" r="80" gradientUnits="userSpaceOnUse">
      <stop offset="0" stop-color="#ffffff" stop-opacity="0.55" />
      <stop offset="0.35" stop-color="#ffffff" stop-opacity="0.18" />
      <stop offset="1" stop-color="#ffffff" stop-opacity="0" />
    </radialGradient>
    <filter id="shadow" x="-20%" y="-20%" width="140%" height="140%">
      <feDropShadow dx="0" dy="12" stdDeviation="10" flood-color="#000000" flood-opacity="0.28" />
    </filter>
  </defs>

  <rect x="10" y="10" width="108" height="108" rx="26" fill="url(#bg)" filter="url(#shadow)" />
  <rect x="10" y="10" width="108" height="108" rx="26" fill="url(#shine)" />
  <rect x="14" y="14" width="100" height="100" rx="22" fill="none" stroke="#ffffff" stroke-opacity="0.18" />

  <!-- Link / channel glyph -->
  <g fill="none" stroke="#ffffff" stroke-width="5.5" stroke-linecap="round" stroke-linejoin="round" opacity="0.95">
    <path d="M46 66l-4 4a14 14 0 0 0 0 20 14 14 0 0 0 20 0l4-4" />
    <path d="M82 62l4-4a14 14 0 0 0 0-20 14 14 0 0 0-20 0l-4 4" />
    <path d="M54 74l20-20" />
  </g>
</svg>


