<svg xmlns="http://www.w3.org/2000/svg" viewBox="0 0 128 128">
  <defs>
    <linearGradient id="bg" x1="16" y1="12" x2="114" y2="118" gradientUnits="userSpaceOnUse">
      <stop offset="0" stop-color="#34d399" />
      <stop offset="0.52" stop-color="#22d3ee" />
      <stop offset="1" stop-color="#60a5fa" />
    </linearGradient>
    <radialGradient id="shine" cx="42" cy="28" r="88" gradientUnits="userSpaceOnUse">
      <stop offset="0" stop-color="#ffffff" stop-opacity="0.55" />
      <stop offset="0.35" stop-color="#ffffff" stop-opacity="0.16" />
      <stop offset="1" stop-color="#ffffff" stop-opacity="0" />
    </radialGradient>
    <filter id="shadow" x="-20%" y="-20%" width="140%" height="140%">
      <feDropShadow dx="0" dy="12" stdDeviation="10" flood-color="#000000" flood-opacity="0.26" />
    </filter>
  </defs>

  <rect x="10" y="10" width="108" height="108" rx="26" fill="url(#bg)" filter="url(#shadow)" />
  <rect x="10" y="10" width="108" height="108" rx="26" fill="url(#shine)" />
  <rect x="14" y="14" width="100" height="100" rx="22" fill="none" stroke="#ffffff" stroke-opacity="0.18" />

  <!-- Collector glyph: pulse + target (centered, cleaner) -->
  <g fill="none" stroke="#ffffff" stroke-width="5.5" stroke-linecap="round" stroke-linejoin="round" opacity="0.95">
    <circle cx="64" cy="66" r="18" />
    <circle cx="64" cy="66" r="5.2" fill="#ffffff" stroke="none" />
    <path d="M30 66h14" stroke-opacity="0.65" />
    <path d="M84 66h14" stroke-opacity="0.65" />
    <path d="M42 84c5 6 13 10 22 10s17-4 22-10" stroke-opacity="0.85" />
    <path d="M42 48c5-6 13-10 22-10s17 4 22 10" stroke-opacity="0.85" />
    <!-- small pulse wave -->
    <path d="M34 78l10-10 8 8 10-14 8 8 8-10" stroke-opacity="0.85" />
  </g>
</svg>


