<svg xmlns="http://www.w3.org/2000/svg" viewBox="0 0 128 128">
  <defs>
    <linearGradient id="bg" x1="16" y1="12" x2="114" y2="118" gradientUnits="userSpaceOnUse">
      <stop offset="0" stop-color="#22d3ee" />
      <stop offset="0.5" stop-color="#60a5fa" />
      <stop offset="1" stop-color="#a78bfa" />
    </linearGradient>
    <radialGradient id="shine" cx="42" cy="28" r="86" gradientUnits="userSpaceOnUse">
      <stop offset="0" stop-color="#ffffff" stop-opacity="0.55" />
      <stop offset="0.35" stop-color="#ffffff" stop-opacity="0.16" />
      <stop offset="1" stop-color="#ffffff" stop-opacity="0" />
    </radialGradient>
    <filter id="shadow" x="-20%" y="-20%" width="140%" height="140%">
      <feDropShadow dx="0" dy="12" stdDeviation="10" flood-color="#000000" flood-opacity="0.26" />
    </filter>
  </defs>

  <rect x="10" y="10" width="108" height="108" rx="26" fill="url(#bg)" filter="url(#shadow)" />
  <rect x="10" y="10" width="108" height="108" rx="26" fill="url(#shine)" />
  <rect x="14" y="14" width="100" height="100" rx="22" fill="none" stroke="#ffffff" stroke-opacity="0.18" />

  <!-- CPU glyph -->
  <g fill="none" stroke="#ffffff" stroke-width="5.5" stroke-linecap="round" stroke-linejoin="round" opacity="0.95">
    <rect x="44" y="44" width="40" height="40" rx="12" />
    <rect x="57" y="57" width="14" height="14" rx="4.5" />
    <path d="M38 54h6M38 74h6M84 54h6M84 74h6" />
    <path d="M54 38v6M74 38v6M54 84v6M74 84v6" />
  </g>
</svg>


