<svg viewBox="0 0 48 48" xmlns="http://www.w3.org/2000/svg">
  <defs>
    <linearGradient id="drop_grad" x1="4" x2="44" y1="4" y2="44" gradientUnits="userSpaceOnUse">
      <stop stop-color="#f97316" />
      <stop offset="0.5" stop-color="#f59e0b" />
      <stop offset="1" stop-color="#ef4444" />
    </linearGradient>
  </defs>
  <rect x="4" y="4" width="40" height="40" rx="12" fill="url(#drop_grad)" />
  <path
    d="M24 14c.6 0 1 .4 1 1v12.2l3.2-3.2a1 1 0 1 1 1.4 1.4l-5 5a1 1 0 0 1-1.4 0l-5-5a1 1 0 1 1 1.4-1.4l3.2 3.2V15c0-.6.4-1 1-1z"
    fill="#fff"
    fill-opacity="0.95"
  />
  <path
    d="M16.5 33.5h15a2.5 2.5 0 0 0 2.5-2.5V29.5H14V31a2.5 2.5 0 0 0 2.5 2.5z"
    fill="#fff"
    fill-opacity="0.28"
  />
</svg>

